<svg width="164" height="152" viewBox="0 0 164 152" fill="none" xmlns="http://www.w3.org/2000/svg">
<ellipse cx="61.5" cy="91.5" rx="60.5" ry="59.5" fill="#8FC74A"/>
<path d="M61.7329 151.022C28.5487 151.022 1.64753 124.198 1.64753 91.1093C1.64753 58.0204 28.5487 31.1965 61.7329 31.1965C94.9172 31.1965 121.818 58.0204 121.818 91.1093C121.818 124.198 94.9172 151.022 61.7329 151.022Z" stroke="#B13D37" stroke-width="1.88971"/>
<path d="M38.2519 146.268C45.3586 123.906 53.0545 97.4122 56.5186 81.1743C59.072 69.2451 61.3754 58.5801 64.6252 50.2119L102.016 97.7148C101.516 97.8217 101.016 98.0531 100.498 98.4448C99.6586 99.068 92.1055 121.466 81.6241 147.657C75.3923 149.829 68.6963 151.022 61.7325 151.022C53.4116 151.022 45.4657 149.331 38.2519 146.268Z" fill="#F26B35"/>
<path fill-rule="evenodd" clip-rule="evenodd" d="M62.4477 31.2142C63.9298 32.5318 65.6082 33.8137 67.5367 35.0422C66.4832 38.8703 65.9118 42.7161 65.9118 46.3126C65.9118 46.5797 65.9118 46.8468 65.9297 47.1138C64.644 49.5353 63.8941 52.4196 63.8941 55.5354C63.8941 57.4762 64.1976 59.3456 64.7333 61.0549C64.6083 62.0342 64.5369 63.0312 64.5369 64.0461C64.5369 73.0553 69.5723 80.9071 77.0004 84.931C79.6431 92.4446 88.2496 97.9284 98.4454 97.9284C105.731 97.9284 112.212 95.1331 116.284 90.7887C118.23 90.5395 120.087 89.9875 121.783 89.1863C120.783 57.2269 94.6599 31.5703 62.4477 31.2142Z" fill="#F26B35"/>
<path d="M91.3574 38.9772C91.0896 40.7933 90.1789 42.1286 89.0719 42.1286C87.7862 42.1286 86.7327 40.2591 86.7327 37.9445C86.7327 37.4994 86.7684 37.0721 86.8399 36.6626C88.3755 37.3748 89.8932 38.1404 91.3574 38.9772Z" fill="#B13D37"/>
<path d="M112.087 58.4199C111.694 58.7048 111.158 58.7404 110.73 58.4556C110.158 58.0995 109.998 57.3695 110.355 56.7997C110.462 56.6395 110.569 56.497 110.676 56.3368C111.158 57.0312 111.641 57.7078 112.087 58.4199Z" fill="#B13D37"/>
<path d="M83.0895 80.9784C84.2323 89.8095 91.9103 97.9641 101.124 97.9107C92.5889 95.5604 86.6071 88.9727 83.0895 80.9784Z" fill="#B13D37"/>
<path d="M45.6988 121.947C50.2164 106.653 54.2697 91.7325 56.5195 81.1743C59.0729 69.2451 61.3764 58.5801 64.6261 50.2119L102.017 97.7148C101.517 97.8217 101.017 98.0531 100.499 98.4448C99.9632 98.8543 96.6241 108.291 91.5351 121.947H45.6988Z" fill="#F26B35"/>
<path d="M158.816 37.9445C158.816 40.2591 157.763 42.1286 156.477 42.1286C155.174 42.1286 154.138 40.2591 154.138 37.9445C154.138 35.6477 155.174 33.7782 156.477 33.7782C157.763 33.7782 158.816 35.6477 158.816 37.9445Z" fill="#B13D37"/>
<path fill-rule="evenodd" clip-rule="evenodd" d="M131.407 77.7202C132.371 77.8448 133.354 77.8982 134.371 77.8982C141.907 77.8982 149.138 72.2363 149.138 68.0344C160.655 63.5654 146.299 42.3066 146.478 45.28H145.656C147.317 43.6598 149.102 41.9327 149.549 40.6152C150.138 38.8347 149.138 37.624 147.442 36.6625C147.013 33.8494 143.585 29.8255 137.996 26.14C138.942 23.1666 140.853 17.0952 138.46 10.0089C133.3 12.4838 129.889 16.5254 126.8 18.4127C122.336 13.2316 116.23 9.49258 109.301 8.01479C105.462 6.39456 101.266 5.50433 96.8559 5.50433C89.1599 5.50433 82.2854 9.9555 76.9821 16.4364C73.4467 11.3621 69.4469 6.10969 64.1973 2.01461C61.001 -0.0151295 57.8048 -0.58488 54.6086 0.643644C51.9302 15.7954 54.3407 26.6029 67.5363 35.0423C66.4828 38.8703 65.9114 42.7161 65.9114 46.3127C65.9114 46.5798 65.9114 46.8468 65.9293 47.1139C64.6437 49.5353 63.8937 52.4197 63.8937 55.5355C63.8937 57.4762 64.1973 59.3457 64.7329 61.055C64.6079 62.0342 64.5365 63.0313 64.5365 64.0462C64.5365 73.0553 69.5719 80.9072 77 84.9311C79.6427 92.4447 88.2493 97.9285 98.445 97.9285C105.73 97.9285 112.212 95.1332 116.283 90.7888C123.747 89.8096 129.764 84.5394 131.407 77.7202Z" fill="#F26B35"/>
<path d="M163.674 22.3298C162.799 24.502 162.103 21.7067 159.388 21.6888C157.799 21.671 153.175 25.0895 151.246 25.3566C148.514 25.7305 147.157 25.4812 147.603 23.3981C148.639 21.7779 161.031 15.0833 163.674 22.3298Z" fill="#B13D37"/>
<path d="M92.875 37.9443C92.875 38.603 91.1787 39.1372 89.0717 39.1372C86.9825 39.1372 85.2862 38.603 85.2862 37.9443C85.2862 37.3033 86.9825 36.7692 89.0717 36.7692C91.1787 36.7692 92.875 37.3033 92.875 37.9443Z" fill="#B13D37"/>
<path d="M89.072 38.7634V39.4934H89.2862H89.4827L89.6791 39.4756H89.8576L90.0541 39.4578L90.2326 39.44L90.429 39.4222L90.6076 39.4044L90.7683 39.3688L90.9469 39.351L91.1076 39.3154L91.2683 39.2798L91.429 39.262L91.5718 39.2085L91.7325 39.1729L91.8575 39.1373L92.0004 39.0839L92.1254 39.0483L92.2503 38.9949L92.3753 38.9415L92.4825 38.8881L92.5896 38.8346L92.6967 38.7634L92.786 38.71L92.8753 38.6388L92.9467 38.5676L93.0181 38.4786L93.0896 38.3895L93.1431 38.3005L93.1967 38.1937L93.2146 38.069L93.2324 37.9444H92.5182V37.9622L92.5003 37.98L92.4825 38.0156L92.4468 38.0512L92.411 38.0868L92.3753 38.1225L92.3039 38.1581L92.2325 38.1937L92.1611 38.2471L92.0718 38.2827L91.9825 38.3183L91.8754 38.3539L91.7682 38.4073L91.6611 38.4429L91.5361 38.4786L91.4111 38.5142L91.2683 38.5498L91.1254 38.5676L90.9826 38.6032L90.8219 38.6388L90.679 38.6566L90.5183 38.6744L90.3398 38.6922L90.179 38.71L90.0005 38.7278L89.8219 38.7456L89.6434 38.7634H89.447H89.2684H89.072ZM85.6436 37.9444H84.9294V38.069L84.9651 38.1937L85.0008 38.3005L85.0722 38.3895L85.1258 38.4786L85.1972 38.5676L85.2865 38.6388L85.3758 38.71L85.4651 38.7634L85.5722 38.8346L85.6793 38.8881L85.7865 38.9415L85.8936 38.9949L86.0186 39.0483L86.1614 39.0839L86.2864 39.1373L86.4293 39.1729L86.5721 39.2085L86.7328 39.262L86.8757 39.2798L87.0364 39.3154L87.215 39.351L87.3757 39.3688L87.5542 39.4044L87.7328 39.4222L87.9113 39.44L88.1078 39.4578L88.2863 39.4756H88.4827L88.6791 39.4934H88.8756H89.072V38.7634H88.8934H88.697H88.5184L88.3399 38.7456L88.1613 38.7278L87.9828 38.71L87.8042 38.6922L87.6435 38.6744L87.4828 38.6566L87.3221 38.6388L87.1792 38.6032L87.0185 38.5676L86.8935 38.5498L86.7507 38.5142L86.6257 38.4786L86.5007 38.4429L86.3757 38.4073L86.2686 38.3539L86.1614 38.3183L86.0722 38.2827L85.9829 38.2471L85.9115 38.1937L85.84 38.1581L85.7865 38.1225L85.7329 38.069L85.6972 38.0512L85.6793 38.0156L85.6615 37.98L85.6436 37.9622V37.9444ZM89.072 37.1432V36.4132H88.8756H88.6791H88.4827L88.2863 36.431L88.1078 36.4488L87.9113 36.4666L87.7328 36.4844L87.5542 36.5022L87.3757 36.52L87.215 36.5556L87.0364 36.5913L86.8757 36.6091L86.7328 36.6447L86.5721 36.6803L86.4293 36.7337L86.2864 36.7693L86.1614 36.8049L86.0186 36.8583L85.8936 36.9117L85.7865 36.9652L85.6793 37.0186L85.5722 37.072L85.4651 37.1254L85.3758 37.1966L85.2865 37.2678L85.1972 37.3391L85.1258 37.4281L85.0722 37.5171L85.0008 37.6061L84.9651 37.713L84.9294 37.8376V37.9444H85.6436L85.6615 37.9088L85.6793 37.891L85.6972 37.8554L85.7329 37.8198L85.7865 37.7842L85.84 37.7486L85.9115 37.713L85.9829 37.6595L86.0722 37.6239L86.1614 37.5883L86.2686 37.5349L86.3757 37.4993L86.5007 37.4637L86.6257 37.4281L86.7507 37.3925L86.8935 37.3569L87.0185 37.3212L87.1792 37.3034L87.3221 37.2678L87.4828 37.25L87.6435 37.2322L87.8042 37.1966L87.9828 37.1788H88.1613L88.3399 37.161L88.5184 37.1432H88.697H88.8934H89.072ZM92.5182 37.9444H93.2324L93.2146 37.8376L93.1967 37.713L93.1431 37.6061L93.0896 37.5171L93.0181 37.4281L92.9467 37.3391L92.8753 37.2678L92.786 37.1966L92.6967 37.1254L92.5896 37.072L92.4825 37.0186L92.3753 36.9652L92.2503 36.9117L92.1254 36.8583L92.0004 36.8049L91.8575 36.7693L91.7325 36.7337L91.5718 36.6803L91.429 36.6447L91.2683 36.6091L91.1076 36.5913L90.9469 36.5556L90.7683 36.52L90.6076 36.5022L90.429 36.4844L90.2326 36.4666L90.0541 36.4488L89.8576 36.431L89.6791 36.4132H89.4827H89.2862H89.072V37.1432H89.2684H89.447H89.6434L89.8219 37.161L90.0005 37.1788H90.179L90.3398 37.1966L90.5183 37.2322L90.679 37.25L90.8219 37.2678L90.9826 37.3034L91.1254 37.3212L91.2683 37.3569L91.4111 37.3925L91.5361 37.4281L91.6611 37.4637L91.7682 37.4993L91.8754 37.5349L91.9825 37.5883L92.0718 37.6239L92.1611 37.6595L92.2325 37.713L92.3039 37.7486L92.3753 37.7842L92.411 37.8198L92.4468 37.8554L92.4825 37.891L92.5003 37.9088L92.5182 37.9266V37.9444Z" fill="#B13D37"/>
<path d="M65.7155 24.4308C65.9655 24.0213 65.8762 23.4871 65.4834 23.1844C63.1621 21.4218 61.68 19.392 60.7337 17.4157C61.3229 15.8667 63.912 14.6382 64.8941 14.2821L65.3762 13.8904L65.4655 13.0714C65.2869 12.5728 64.7334 12.3236 64.2513 12.5016C63.8942 12.6263 61.4122 13.5521 59.8944 15.2435C58.8409 11.7538 59.2695 8.90507 59.3052 8.69141C59.3766 8.17508 59.0373 7.69435 58.5195 7.60533C58.0017 7.5163 57.5017 7.8724 57.4303 8.38873C57.3589 8.78044 55.8947 18.2525 64.3227 24.6978C64.7513 25.0183 65.3405 24.9293 65.6619 24.5198L65.7155 24.4308Z" fill="#B13D37"/>
<path d="M121.694 39.1552C121.123 38.7991 120.962 38.0691 121.319 37.5172C121.676 36.9474 122.426 36.7872 122.98 37.1433C125.176 38.5321 127.497 39.6359 129.837 40.722C133.301 42.3423 136.8 43.9803 140.104 46.7044C140.818 45.5115 141.604 44.372 142.443 43.2325C143.604 41.7013 144.889 40.2057 146.3 38.7813C146.764 38.3184 147.532 38.3006 147.996 38.7635C148.478 39.2264 148.478 39.992 148.014 40.455C146.675 41.8259 145.461 43.2325 144.371 44.6747C143.354 46.0278 142.443 47.4166 141.639 48.841L141.711 49.9449C141.943 54.4851 142.193 59.0253 142.121 62.2835C142.086 63.8147 141.943 65.0967 141.675 66.0581C142.604 66.521 143.657 66.8059 144.728 66.9305C146.086 67.073 147.407 66.9305 148.442 66.4676C149.032 66.1827 149.746 66.4498 150.032 67.0552C150.3 67.6605 150.032 68.3549 149.442 68.6398C147.996 69.2986 146.228 69.4944 144.478 69.3164C142.943 69.1383 141.407 68.6754 140.086 67.9276C134.497 69.5478 129.033 69.1917 124.212 67.2688C119.587 65.4171 115.587 62.1055 112.659 57.7077L112.391 58.0994C112.034 58.6514 111.284 58.8294 110.731 58.4555C110.159 58.0994 109.999 57.3694 110.356 56.7997C110.945 55.9094 111.606 55.1616 112.338 54.5741C113.105 53.9687 113.945 53.5592 114.855 53.3456C115.516 53.2031 116.159 53.6126 116.302 54.2536C116.445 54.8946 116.052 55.5355 115.409 55.6958C115.07 55.767 114.748 55.8916 114.445 56.0519C117.105 60.2004 120.819 63.3162 125.123 65.0432C129.479 66.7881 134.443 67.0908 139.532 65.5952H139.55C139.675 65.5062 139.8 65.4527 139.943 65.4349C139.943 65.061 139.675 63.8859 139.711 62.2301C139.782 59.0965 139.55 54.5919 139.3 50.0695L139.247 49.1258C135.979 46.2415 132.39 44.55 128.819 42.8764C126.408 41.7547 124.015 40.6508 121.694 39.1552Z" fill="#B13D37"/>
<path d="M83.0895 80.9784C84.2323 89.8095 91.9103 97.9641 101.124 97.9107C92.5889 95.5604 86.6071 88.9727 83.0895 80.9784Z" fill="#B13D37"/>
<path d="M147.442 36.6626C145.96 29.8968 137.247 25.1786 130.747 22.0806C125.962 19.7659 120.873 16.5433 115.302 17.0774C113.48 17.2733 111.713 17.7362 110.034 18.4306C117.355 16.1338 123.872 19.8194 130.193 23.2735C136.604 26.14 144.728 29.9502 147.442 36.6626Z" fill="#B13D37"/>
<path d="M122.926 72.1473C124.212 76.4561 128.194 79.2514 132.068 77.56C127.747 77.8626 124.712 75.5836 122.926 72.1473Z" fill="#B13D37"/>
<path d="M77.7331 35.7545C79.6437 37.1255 78.7331 34.3836 81.0186 32.9236C82.3578 32.069 88.1075 32.5141 89.8752 31.7129C92.3929 30.5912 93.3928 29.6653 91.9287 28.1341C90.1609 27.2973 76.1082 28.2231 77.7331 35.7545Z" fill="#B13D37"/>
<path fill-rule="evenodd" clip-rule="evenodd" d="M89.7314 8.63796L104.891 10.7923C111.194 7.87236 114.212 4.13337 115.712 0.00268555C110.659 2.15705 106.463 5.62897 101.213 5.78921C102.159 2.99387 101.213 1.60511 100.552 0.00268555C99.8201 2.86924 95.6418 4.77434 91.8384 6.1453L89.7314 8.63796Z" fill="#F26B35"/>
</svg>
