<svg width="108" height="160" viewBox="0 0 108 160" fill="none" xmlns="http://www.w3.org/2000/svg">
<path d="M107.45 130.188C101.302 110.358 94.7026 87.006 91.7192 72.6429C89.5494 62.1717 87.5604 52.7199 84.7577 45.3066L52.6628 87.284C53.1149 87.3767 53.4765 87.562 53.9285 87.9327C54.6518 88.4887 61.1612 108.226 70.202 131.393C75.5361 133.339 81.2318 134.358 87.2892 134.358C94.4314 134.358 101.212 132.875 107.45 130.188Z" fill="#F26B35"/>
<path fill-rule="evenodd" clip-rule="evenodd" d="M86.6562 28.5342C85.3905 29.7388 83.944 30.8508 82.3167 31.8701C83.2207 35.2987 83.6728 38.7274 83.6728 41.878C83.6728 42.0633 83.6728 42.3413 83.6728 42.6193C84.7577 44.7506 85.3905 47.2526 85.3905 50.0325C85.3905 51.7005 85.1193 53.3685 84.6673 54.9438C84.7577 55.7778 84.8481 56.6118 84.8481 57.5384C84.8481 65.5076 80.5085 72.4575 74.1799 75.9788C71.8293 82.6507 64.5062 87.4693 55.7367 87.4693C49.4081 87.4693 43.8932 84.9673 40.3673 81.168C38.7399 80.8901 37.1126 80.4267 35.666 79.7781C36.5701 51.5152 58.9913 28.8122 86.6562 28.5342Z" fill="#F26B35"/>
<path d="M61.7935 35.3912C62.0647 36.9665 62.788 38.1711 63.7825 38.1711C64.8674 38.1711 65.7715 36.5032 65.7715 34.4645C65.7715 34.0939 65.7715 33.7232 65.6811 33.3525C64.325 34.0012 63.0592 34.6499 61.7935 35.3912Z" fill="#B13D37"/>
<path d="M43.9841 52.5351C44.3457 52.813 44.7977 52.813 45.1594 52.6277C45.6114 52.2571 45.7922 51.6084 45.521 51.1451C45.4306 50.9597 45.3402 50.8671 45.2498 50.7744C44.7977 51.3304 44.3457 51.9791 43.9841 52.5351Z" fill="#B13D37"/>
<path d="M68.9355 72.457C67.9411 80.2409 61.3413 87.4688 53.3853 87.4688C60.7084 85.3375 65.8617 79.5923 68.9355 72.457Z" fill="#B13D37"/>
<path d="M97.0046 95.3587C94.7175 86.8913 92.7963 79.1765 91.5155 72.9671C89.3198 62.3358 87.3071 52.7395 84.4711 45.2129L51.9936 87.8321C52.451 87.9262 52.8169 88.1143 53.2744 88.4907C53.7318 88.867 56.6593 97.3344 61.1421 109.565H95.8153C96.4557 107.213 97.4621 97.0521 97.0046 95.3587Z" fill="#F26B35"/>
<path d="M3.92361 34.1529C3.92361 36.365 4.79562 38.1749 5.84203 38.1749C6.97565 38.1749 7.84766 36.365 7.84766 34.1529C7.84766 31.9408 6.97565 30.1309 5.84203 30.1309C4.79562 30.1309 3.92361 31.9408 3.92361 34.1529Z" fill="#B13D37"/>
<path fill-rule="evenodd" clip-rule="evenodd" d="M26.9661 69.5656C26.1482 69.6582 25.3302 69.7509 24.4214 69.7509C17.9687 69.7509 11.6977 64.7484 11.6977 61.0428C1.79137 57.0593 14.1515 38.3463 13.9698 40.9402H14.6968C13.2427 39.5506 11.6977 37.9757 11.3342 36.8641C10.8797 35.2892 11.6977 34.1775 13.1518 33.3438C13.5154 30.8425 16.5145 27.3222 21.3314 24.0799C20.5134 21.3934 18.8775 16.0203 20.9678 9.81348C25.4211 12.0368 28.3294 15.5571 30.965 17.2246C34.873 12.6853 40.1443 9.35029 46.1426 8.05334C49.4144 6.57112 53.0497 5.83001 56.8668 5.83001C63.5013 5.83001 69.4088 9.72085 74.0438 15.4645C77.043 11.0178 80.4966 6.38584 85.0408 2.77293C87.8582 0.920147 90.5847 0.456953 93.3112 1.56862C95.6741 14.9086 93.5838 24.4504 82.2234 31.8616C83.1322 35.2892 83.5866 38.7168 83.5866 41.8666C83.5866 42.0518 83.5866 42.3298 83.5866 42.6077C84.6772 44.7384 85.3134 47.2396 85.3134 50.0188C85.3134 51.6863 85.0408 53.3538 84.5863 54.9286C84.6772 55.7624 84.7681 56.5961 84.7681 57.5225C84.7681 65.4895 80.4057 72.4374 74.0438 75.9577C71.6809 82.6277 64.3193 87.4449 55.5036 87.4449C49.1417 87.4449 43.5978 84.9437 40.0534 81.1455C33.6006 80.2191 28.4203 75.5871 26.9661 69.5656Z" fill="#F26B35"/>
<path d="M0.000203133 17.5982C0.715001 19.3027 1.34045 17.1112 3.66354 17.1112C5.00379 17.1112 8.93517 19.7085 10.5435 19.952C12.8666 20.2766 14.0281 20.0331 13.6707 18.4099C12.7772 17.1924 2.23395 11.9979 0.000203133 17.5982Z" fill="#B13D37"/>
<path d="M84.5139 22.6291C84.2617 22.3364 84.3458 21.751 84.6821 21.5559C86.5316 19.8973 87.7085 17.9461 88.4651 16.1899C88.0448 14.7265 85.9431 13.5558 85.1865 13.2631L84.7661 12.8728L84.6821 12.0923C84.8502 11.6045 85.2705 11.4094 85.6909 11.6045C85.9431 11.7021 87.9607 12.5801 89.1376 14.1411C89.9783 10.9216 89.6421 8.18982 89.6421 7.99469C89.558 7.50688 89.8102 7.11663 90.2305 7.01907C90.6509 6.92151 91.0712 7.31176 91.1553 7.70201C91.1553 8.09226 92.3322 16.9704 85.6068 22.9218C85.2705 23.2145 84.7661 23.1169 84.5139 22.7266V22.6291Z" fill="#B13D37"/>
<path d="M35.9286 35.143C36.3937 34.7654 36.5798 34.1046 36.2077 33.6325C35.9286 33.1605 35.2773 32.9717 34.8122 33.3493C32.8584 34.5766 30.8117 35.5206 28.7649 36.5591C25.6018 37.9752 22.5316 39.4856 19.6476 41.9402C18.9963 40.8073 18.3451 39.7689 17.6008 38.8248C16.5774 37.4087 15.368 36.0871 14.1585 34.7654C13.7864 34.3878 13.0421 34.3878 12.67 34.7654C12.2048 35.143 12.2048 35.8983 12.67 36.2759C13.7864 37.5031 14.9028 38.8248 15.8332 40.0521C16.7635 41.2793 17.6008 42.5066 18.2521 43.8283V44.8667C17.9729 48.9261 17.7869 52.9855 17.8799 55.9121C17.8799 57.3282 17.9729 58.461 18.2521 59.3107C17.4147 59.6883 16.4844 59.9715 15.5541 60.0659C14.3446 60.2547 13.2282 60.0659 12.2979 59.6883C11.7396 59.4051 11.0884 59.6883 10.9023 60.2547C10.6232 60.7267 10.9023 61.3876 11.3675 61.6708C12.67 62.2372 14.2516 62.426 15.7401 62.2372C17.1356 62.0484 18.5312 61.6708 19.6476 61.0099C24.5784 62.426 29.4162 62.1428 33.6958 60.4435C37.7893 58.7442 41.3246 55.7233 43.9295 51.7583L44.1156 52.1359C44.4877 52.7023 45.139 52.7967 45.6041 52.5135C46.0693 52.1359 46.2554 51.4751 45.9763 51.003C45.4181 50.1534 44.8599 49.4926 44.2086 49.0205C43.5574 48.4541 42.7201 48.0765 41.9758 47.8877C41.4176 47.7933 40.7664 48.0765 40.6733 48.7373C40.5803 49.3037 40.9524 49.8702 41.5106 49.9646C41.7897 50.059 42.0688 50.1534 42.3479 50.3422C39.9291 54.024 36.6729 56.8561 32.8584 58.3666C29.044 59.9715 24.6714 60.2547 20.1127 58.933C20.0197 58.8386 19.9267 58.7442 19.7406 58.7442C19.7406 58.461 20.0197 57.3282 20.0197 55.9121C19.9267 53.0799 20.1127 49.0205 20.3918 44.9611V44.1115C23.2759 41.4681 26.4391 39.9577 29.6022 38.4472C31.742 37.5031 33.8818 36.4647 35.9286 35.143Z" fill="#B13D37"/>
<path d="M68.6709 72.3633C67.6671 80.1839 61.0053 87.4458 52.9747 87.4458C60.3665 85.3045 65.5682 79.5321 68.6709 72.3633Z" fill="#B13D37"/>
<path d="M13.734 33.1473C15.0071 27.2227 22.5549 23.2122 28.1929 20.4777C32.2851 18.4725 36.741 15.6469 41.5606 16.1027C43.1065 16.285 44.6524 16.7407 46.1074 17.2876C39.7419 15.2823 34.1038 18.4725 28.6476 21.4804C23.1005 24.0325 16.0984 27.3138 13.734 33.1473Z" fill="#B13D37"/>
<path d="M35.3164 65.3242C34.0986 68.9614 30.2422 71.3567 26.4873 69.9373C30.6481 70.2034 33.5912 68.2517 35.3164 65.3242Z" fill="#B13D37"/>
<path d="M73.4711 20.7292C71.7744 21.9871 72.5781 19.561 70.6135 18.3929C69.5419 17.5842 64.6304 18.0335 63.1124 17.3147C60.9692 16.3262 60.1655 15.5175 61.4157 14.2596C62.9338 13.5407 74.8105 14.3494 73.4711 20.7292Z" fill="#B13D37"/>
<path fill-rule="evenodd" clip-rule="evenodd" d="M63.7656 8.24679L50.6113 10.0212C45.1304 7.62574 42.4812 4.43179 41.2023 0.97168C45.5871 2.7461 49.2411 5.67388 53.8085 5.85133C52.9864 3.45586 53.8085 2.30249 54.3566 0.97168C54.9961 3.36714 58.5587 4.96412 61.9386 6.11749L63.7656 8.24679Z" fill="#F26B35"/>
<path d="M52.9743 33.6507C52.9743 36.0639 54.2692 38.1755 55.9173 38.1755C57.5654 38.1755 58.8604 36.0639 58.8604 33.6507C58.8604 31.137 57.5654 29.126 55.9173 29.126C54.2692 29.126 52.9743 31.137 52.9743 33.6507Z" fill="#B13D37"/>
<path d="M54.7417 133.525L53.2952 146.127C52.3911 144.552 51.939 142.699 51.939 140.753C51.939 137.973 53.0239 135.378 54.7417 133.525ZM53.0239 148.815L52.2103 155.95L88.2831 159.749V159.842H103.02C103.743 149.185 104.466 138.529 105.189 127.872H104.195C102.748 127.687 101.211 127.502 99.6746 127.316L100.85 98.6828C100.94 97.2929 100.759 95.4396 100.398 94.0496C100.217 93.2156 99.8554 92.4743 99.4937 91.8256C98.8609 90.899 97.9568 90.2503 96.8719 90.2503C96.6007 90.1576 96.239 90.2503 95.9678 90.343L96.5103 92.4743L97.1431 94.6982C97.5952 96.3662 96.6007 106.189 95.9678 108.598L95.1541 126.76L91.0858 126.204L87.4694 121.201L76.1684 118.143L73.3658 124.166C68.755 123.702 64.1441 123.424 59.6237 123.239L60.0758 104.243L59.1717 101.741L59.0813 101.833L58.9909 101.37L58.4484 99.7948L57.6347 97.5709C55.3745 98.4048 55.4649 100.073 55.5554 101.648L55.6458 102.111L54.9225 130.93C54.4705 131.208 54.0184 131.579 53.6568 132.042C51.487 134.266 50.1309 137.324 50.1309 140.753C50.1309 143.811 51.2158 146.683 53.0239 148.815ZM62.2456 128.336C61.2511 128.336 60.347 128.428 59.4429 128.706L59.5333 125.463L90.2721 129.54C89.6392 138.992 89.0064 148.444 88.3735 157.896L54.1992 154.282L54.6513 150.483C56.6403 152.058 59.0813 153.077 61.7935 153.17L69.207 153.633C70.4727 154.097 71.9192 154.375 73.3658 154.375C76.7109 154.375 79.7848 152.985 81.9545 150.761C84.1243 148.444 85.4805 145.386 85.4805 141.958C85.4805 138.529 84.1243 135.378 81.9545 133.154C79.8752 131.023 76.9821 129.633 73.8178 129.54L64.5962 128.614C63.8729 128.428 63.0592 128.336 62.2456 128.336ZM68.5741 151.317C69.3878 150.853 70.1111 150.205 70.7439 149.556C73.0041 147.332 74.3603 144.181 74.3603 140.753C74.3603 137.324 73.0041 134.266 70.7439 132.042L70.5631 131.764C71.4672 131.486 72.3713 131.394 73.3658 131.394H73.7274L75.0835 131.486C77.2533 131.857 79.1519 132.969 80.6888 134.452C82.497 136.398 83.6723 138.992 83.6723 141.958C83.6723 144.83 82.497 147.517 80.6888 149.463C79.4231 150.761 77.7958 151.687 75.9876 152.151L69.5686 151.78C69.2974 151.687 68.9358 151.502 68.5741 151.317ZM59.4429 130.652C60.2566 130.374 61.2511 130.189 62.2456 130.189L64.325 130.467C65.229 130.652 66.1331 130.93 66.9468 131.394C66.2235 131.95 65.5003 132.506 64.777 133.154C62.6072 135.378 61.2511 138.529 61.2511 141.958C61.2511 145.386 62.6072 148.444 64.777 150.761L65.0482 150.946C64.1441 151.224 63.1496 151.317 62.2456 151.317C59.3525 151.317 56.8211 150.205 54.9225 148.259L56.4594 134.359H59.3525L59.4429 130.652ZM68.6645 132.506C68.9358 132.784 69.207 133.062 69.4782 133.34C71.3768 135.193 72.5521 137.88 72.5521 140.753C72.5521 143.718 71.3768 146.313 69.4782 148.259C68.755 149 67.8509 149.649 66.9468 150.205C66.5852 149.927 66.3139 149.741 66.0427 149.463C64.2345 147.517 63.0592 144.83 63.0592 141.958C63.0592 138.992 64.2345 136.398 66.0427 134.452C66.8564 133.71 67.6701 133.062 68.6645 132.506ZM98.9513 143.903L99.5841 129.726H103.2L101.392 157.989H90.1817L92.0803 129.726H95.0637L94.4309 143.718L98.9513 143.903ZM88.6448 125.926C84.2148 125.37 79.6943 124.814 75.2643 124.351L77.1629 120.367L86.475 122.868L88.6448 125.926Z" fill="#373435"/>
<path d="M62.2458 151.225C56.6036 151.225 52.0297 146.536 52.0297 140.753C52.0297 134.97 56.6036 130.282 62.2458 130.282C67.888 130.282 72.4619 134.97 72.4619 140.753C72.4619 146.536 67.888 151.225 62.2458 151.225Z" fill="#39393B" stroke="#323335" stroke-width="0.288"/>
<path d="M62.2451 149.743C57.4017 149.743 53.4755 145.718 53.4755 140.754C53.4755 135.79 57.4017 131.766 62.2451 131.766C67.0884 131.766 71.0146 135.79 71.0146 140.754C71.0146 145.718 67.0884 149.743 62.2451 149.743Z" fill="#323335" stroke="#303236" stroke-width="0.288"/>
<path d="M62.2454 148.723C57.9513 148.723 54.4703 145.155 54.4703 140.753C54.4703 136.352 57.9513 132.784 62.2454 132.784C66.5395 132.784 70.0205 136.352 70.0205 140.753C70.0205 145.155 66.5395 148.723 62.2454 148.723Z" fill="#2D2E30" stroke="#2E2C2D" stroke-width="0.288"/>
<path d="M98.951 143.904L99.5839 129.727H103.2L101.392 157.989H90.1814L92.08 129.727H95.0635L94.4306 143.719L98.951 143.904Z" fill="#4B4B4D" stroke="#323335" stroke-width="0.288"/>
<path d="M88.6445 125.926C84.2145 125.37 79.6941 124.814 75.2641 124.351L77.1627 120.366L86.4747 122.868L88.6445 125.926Z" fill="#4B4B4D" stroke="#323335" stroke-width="0.288"/>
<path fill-rule="evenodd" clip-rule="evenodd" d="M77.1623 123.888L83.8525 124.537L83.2197 122.869L77.976 121.757L77.1623 123.888Z" fill="#FEFEFE" stroke="#323335" stroke-width="0.288"/>
<path d="M62.2459 128.336C61.2514 128.336 60.3473 128.428 59.4433 128.706L59.5337 125.463L90.2725 129.54C89.6396 138.992 89.0067 148.444 88.3739 157.896L54.1996 154.282L54.6516 150.483C56.6406 152.058 59.0816 153.077 61.7939 153.17L69.2074 153.633C70.4731 154.096 71.9196 154.374 73.3661 154.374C76.7112 154.374 79.7851 152.984 81.9549 150.761C84.1247 148.444 85.4808 145.386 85.4808 141.957C85.4808 138.529 84.1247 135.378 81.9549 133.154C79.8755 131.023 76.9825 129.633 73.8182 129.54L64.5965 128.614C63.8733 128.428 63.0596 128.336 62.2459 128.336Z" fill="#4B4B4D" stroke="#323335" stroke-width="0.288"/>
<path d="M68.5737 151.317C69.3874 150.853 70.1106 150.205 70.7435 149.556C73.0037 147.332 74.3598 144.181 74.3598 140.753C74.3598 137.324 73.0037 134.266 70.7435 132.042L70.5627 131.764C71.4668 131.486 72.3709 131.394 73.3653 131.394H73.727L75.0831 131.486C77.2529 131.857 79.1515 132.969 80.6884 134.452C82.4966 136.397 83.6719 138.992 83.6719 141.957C83.6719 144.83 82.4966 147.517 80.6884 149.463C79.4227 150.761 77.7953 151.687 75.9872 152.151L69.5682 151.78C69.297 151.687 68.9353 151.502 68.5737 151.317Z" fill="#4B4B4D" stroke="#323335" stroke-width="0.288"/>
<path d="M64.5063 134.358C67.3994 135.378 68.6651 137.972 68.3939 141.123" stroke="#FEFEFE" stroke-width="0.377952" stroke-linecap="round" stroke-linejoin="round"/>
<path d="M68.0318 143.44C67.7322 143.44 67.4893 143.191 67.4893 142.884C67.4893 142.577 67.7322 142.328 68.0318 142.328C68.3314 142.328 68.5742 142.577 68.5742 142.884C68.5742 143.191 68.3314 143.44 68.0318 143.44Z" fill="#FEFEFE"/>
</svg>
