<svg width="140" height="161" viewBox="0 0 140 161" fill="none" xmlns="http://www.w3.org/2000/svg">
<g clip-path="url(#clip0_313_16)">
<path d="M132.05 39.8812C132.05 42.453 130.914 44.4952 129.475 44.4952C128.112 44.4952 126.977 42.453 126.977 39.8812C126.977 37.3851 128.112 35.3428 129.475 35.3428C130.914 35.3428 132.05 37.3851 132.05 39.8812Z" fill="#B13D37"/>
<path fill-rule="evenodd" clip-rule="evenodd" d="M128.718 37.7633C134.775 37.7633 139.621 42.6799 139.621 48.6555C139.621 54.7067 134.775 59.5477 128.718 59.5477C122.736 59.5477 117.891 54.7067 117.891 48.6555C117.891 42.6799 122.736 37.7633 128.718 37.7633Z" fill="#006666" fill-opacity="0.78"/>
<path d="M128.718 37.4607C131.822 37.4607 134.699 38.671 136.668 40.7133C138.712 42.7555 140 45.5542 140 48.6555C140 51.7567 138.712 54.5554 136.668 56.5977C134.699 58.64 131.822 59.8502 128.718 59.8502C125.689 59.8502 122.812 58.64 120.843 56.5977C118.799 54.5554 117.512 51.7567 117.512 48.6555C117.512 45.5542 118.799 42.7555 120.843 40.7133C122.812 38.671 125.689 37.4607 128.718 37.4607ZM136.214 41.2427C134.321 39.2761 131.671 38.1415 128.718 38.1415C125.841 38.1415 123.19 39.2761 121.298 41.2427C119.405 43.1337 118.193 45.7811 118.193 48.6555C118.193 51.6054 119.405 54.1772 121.298 56.1439C123.19 58.0349 125.841 59.1695 128.718 59.1695C131.671 59.1695 134.321 58.0349 136.214 56.1439C138.107 54.1772 139.318 51.6054 139.318 48.6555C139.318 45.7811 138.107 43.1337 136.214 41.2427Z" fill="#373435"/>
<path d="M0 159.468C7.72309 135.112 16.1276 106.218 19.9135 88.5179C22.6393 75.5077 25.1379 63.8591 28.6966 54.7823L69.3564 106.52C68.8264 106.672 68.2964 106.898 67.7664 107.352C66.782 108.033 58.6047 132.465 47.1714 160.981L0 159.468Z" fill="#F2BD35"/>
<path fill-rule="evenodd" clip-rule="evenodd" d="M26.3496 34.0569C27.9397 35.4941 29.7569 36.8556 31.8769 38.2171C30.7412 42.3773 30.1354 46.6132 30.1354 50.4708C30.1354 50.7734 30.1354 51.076 30.1354 51.3785C28.6968 54.0259 27.8639 57.2028 27.8639 60.531C27.8639 62.7246 28.2425 64.6912 28.7725 66.5822C28.6968 67.6412 28.6211 68.7758 28.6211 69.8347C28.6211 79.668 34.0727 88.2153 42.1744 92.6024C45.0516 100.772 54.4405 106.823 65.4951 106.823C73.4453 106.823 80.487 103.722 84.8785 99.0319C86.9986 98.7293 89.043 98.1242 90.9359 97.2921C89.8001 62.422 61.4064 34.4351 26.3496 34.0569Z" fill="#F2BD35"/>
<path d="M57.7727 42.5286C57.4698 44.4953 56.4855 45.9324 55.274 45.9324C53.9111 45.9324 52.7754 43.8902 52.7754 41.394C52.7754 40.9402 52.7754 40.4107 52.8511 40.0325C54.5169 40.7889 56.1826 41.6209 57.7727 42.5286Z" fill="#B13D37"/>
<path d="M80.3358 63.7079C79.9572 64.0104 79.3515 64.0861 78.8972 63.7835C78.2915 63.4053 78.0643 62.5733 78.4429 61.9681C78.5943 61.8169 78.67 61.5899 78.8215 61.4387C79.3515 62.1951 79.8815 62.9515 80.3358 63.7079Z" fill="#B13D37"/>
<path d="M48.7617 88.291C50.0489 97.8973 58.3777 106.823 68.448 106.747C59.1349 104.175 52.6233 96.9896 48.7617 88.291Z" fill="#B13D37"/>
<path d="M13.024 115.748C15.9012 105.461 18.2484 96.0062 19.9142 88.5179C22.64 75.5077 25.1386 63.8591 28.6973 54.7823L69.3571 106.52C68.8271 106.672 68.2971 106.898 67.7671 107.352C67.1614 107.806 63.527 118.093 57.9996 132.994H14.5383C13.7054 130.12 12.4182 117.866 13.024 115.748Z" fill="#F2BD35"/>
<path fill-rule="evenodd" clip-rule="evenodd" d="M101.384 84.7358C102.444 84.8871 103.504 84.9628 104.64 84.9628C112.817 84.9628 120.692 78.7603 120.692 74.2219C133.185 69.3052 117.587 46.1593 117.739 49.4119H116.906C118.723 47.5965 120.616 45.7055 121.146 44.2683C121.752 42.3773 120.692 41.0158 118.799 39.9568C118.345 36.9312 114.634 32.5441 108.577 28.5352C109.561 25.2826 111.681 18.6263 109.031 10.911C103.428 13.6341 99.7182 18.0212 96.3867 20.0635C91.4651 14.4661 84.8778 10.3815 77.3061 8.79308C73.1417 6.97771 68.5987 5.99439 63.7528 5.99439C55.424 5.99439 47.9281 10.8354 42.0979 17.9455C38.3121 12.4238 33.9205 6.67515 28.2417 2.21238C24.7588 0.0188161 21.2758 -0.586306 17.7929 0.699578C14.9156 17.2648 17.49 29.0647 31.8761 38.2171C30.7404 42.3773 30.1347 46.6132 30.1347 50.4708C30.1347 50.7734 30.1347 51.076 30.1347 51.3785C28.696 54.0259 27.8632 57.2028 27.8632 60.531C27.8632 62.7245 28.2417 64.6912 28.7718 66.5822C28.696 67.6412 28.6203 68.7758 28.6203 69.8347C28.6203 79.668 34.0719 88.2153 42.1736 92.6024C45.0508 100.772 54.4397 106.823 65.4943 106.823C73.4446 106.823 80.4862 103.722 84.8778 99.0318C93.0552 97.8972 99.5668 92.2242 101.384 84.7358Z" fill="#F2BD35"/>
<path d="M136.517 19.9878C135.533 22.3327 134.775 19.3071 131.822 19.3071C130.081 19.3071 125.084 23.0134 122.964 23.316C120.011 23.6942 118.496 23.4673 119.026 21.1981C120.162 19.3827 133.564 12.1213 136.517 19.9878Z" fill="#B13D37"/>
<path d="M29.9081 26.6442C30.1353 26.1903 30.0595 25.6608 29.6052 25.2826C27.1066 23.3916 25.5165 21.1224 24.4565 19.0045C25.138 17.3404 27.9395 15.9789 28.9995 15.6007L29.5295 15.1469L29.6052 14.2392C29.3781 13.7097 28.8481 13.4828 28.3181 13.6341C27.8638 13.7853 25.2137 14.7687 23.5479 16.6597C22.4122 12.802 22.8665 9.70076 22.8665 9.47384C23.0179 8.94436 22.6393 8.41488 22.0336 8.33924C21.5036 8.18796 20.9735 8.56616 20.8221 9.17128C20.8221 9.62512 19.1563 19.9122 28.3938 26.9467C28.8481 27.3249 29.4538 27.1736 29.8324 26.7198L29.9081 26.6442Z" fill="#B13D37"/>
<path d="M48.7617 88.291C50.0489 97.8973 58.3777 106.823 68.448 106.747C59.1349 104.175 52.6233 96.9896 48.7617 88.291Z" fill="#B13D37"/>
<path d="M118.798 39.9568C117.208 32.6197 107.744 27.4762 100.627 24.0724C95.4021 21.5763 89.9505 18.0212 83.8174 18.6263C81.8488 18.8532 79.9559 19.3827 78.1387 20.1391C86.0889 17.5673 93.2063 21.6519 100.021 25.4339C106.987 28.5352 115.846 32.6954 118.798 39.9568Z" fill="#B13D37"/>
<path d="M92.1465 78.6846C93.5094 83.3743 97.9009 86.3999 102.065 84.5846C97.3709 84.8871 94.1151 82.391 92.1465 78.6846Z" fill="#B13D37"/>
<path d="M42.9309 24.6019C45.0509 26.1147 44.0666 23.0891 46.5653 21.5006C48.0039 20.593 54.2126 21.0468 56.1813 20.2148C58.9071 19.0045 60.0428 17.9455 58.377 16.2815C56.4841 15.3738 41.1894 16.3571 42.9309 24.6019Z" fill="#B13D37"/>
<path fill-rule="evenodd" clip-rule="evenodd" d="M56.0312 9.39819L72.5375 11.8187C79.352 8.56614 82.6835 4.48157 84.2735 0.0187988C78.8219 2.36365 74.2032 6.14566 68.5245 6.29694C69.5088 3.27133 68.5245 1.75852 67.7673 0.0187988C67.0102 3.12005 62.4672 5.23797 58.3027 6.67514L56.0312 9.39819Z" fill="#F2BD35"/>
<path d="M68.1451 40.6376C68.1451 43.4363 66.8579 45.7811 65.2679 45.7811C63.6778 45.7811 62.3906 43.4363 62.3906 40.6376C62.3906 37.7633 63.6778 35.4941 65.2679 35.4941C66.8579 35.4941 68.1451 37.7633 68.1451 40.6376Z" fill="#B13D37"/>
<path fill-rule="evenodd" clip-rule="evenodd" d="M74.0499 37.9902C79.7286 37.9902 84.2716 42.6042 84.2716 48.2016C84.2716 53.8746 79.7286 58.413 74.0499 58.413C68.3711 58.413 63.8281 53.8746 63.8281 48.2016C63.8281 42.6042 68.3711 37.9902 74.0499 37.9902Z" fill="#006666" fill-opacity="0.78"/>
<path d="M74.05 37.6876C77.0029 37.6876 79.5773 38.8979 81.5459 40.7889C83.4389 42.6799 84.5746 45.3273 84.5746 48.2016C84.5746 51.1516 83.4389 53.799 81.5459 55.69C79.5773 57.581 77.0029 58.7912 74.05 58.7912C71.1728 58.7912 68.5227 57.581 66.6298 55.69C64.6611 53.799 63.5254 51.1516 63.5254 48.2016C63.5254 45.3273 64.6611 42.6799 66.6298 40.7889C68.5227 38.8979 71.1728 37.6876 74.05 37.6876ZM81.0916 41.2427C79.2744 39.4273 76.7758 38.3684 74.05 38.3684C71.3242 38.3684 68.8256 39.4273 67.0841 41.2427C65.2669 43.0581 64.1311 45.4786 64.1311 48.2016C64.1311 51.0003 65.2669 53.4208 67.0841 55.2362C68.8256 57.0515 71.3242 58.1105 74.05 58.1105C76.7758 58.1105 79.2744 57.0515 81.0916 55.2362C82.8331 53.4208 83.9689 51.0003 83.9689 48.2016C83.9689 45.4786 82.8331 43.0581 81.0916 41.2427Z" fill="#373435"/>
<path d="M83.5156 44.4196C89.4972 36.4774 96.6903 31.6364 103.051 30.1236C106.079 29.3672 108.956 29.3672 111.455 30.1236C113.954 30.88 115.998 32.4685 117.437 34.8889C118.27 36.3261 118.875 38.0658 119.102 40.1838L118.8 39.9568C118.572 38.3684 117.361 35.8723 115.544 33.9813L112.969 32.6197V32.6954C112.364 32.3172 111.682 31.939 110.925 31.7121C108.729 31.0313 106.231 31.1069 103.429 31.7877C97.4475 33.2249 89.9515 38.7466 84.2728 46.3106L83.5156 44.4196ZM119.102 40.1838C119.178 40.4107 119.178 40.6376 119.178 40.9402L119.102 40.1838Z" fill="#373435"/>
<path fill-rule="evenodd" clip-rule="evenodd" d="M86.4688 69.0783L91.6175 70.8937L89.4974 78.6846L86.4688 69.0783Z" fill="#FEFEFE"/>
<path fill-rule="evenodd" clip-rule="evenodd" d="M121.753 73.3142L116.756 75.1295L119.633 82.9205L121.753 73.3142Z" fill="#FEFEFE" stroke="#B13D37" stroke-width="0.00377933"/>
<path d="M90.7847 42.6799C90.179 42.3017 90.0275 41.5453 90.4061 40.9402C90.7847 40.335 91.6176 40.1081 92.2233 40.4863C94.5705 42.0748 97.1449 43.2094 99.6435 44.4196C103.429 46.1593 107.215 47.9747 110.85 50.9247C111.607 49.6388 112.44 48.3529 113.424 47.1427C114.635 45.4786 116.074 43.8901 117.588 42.3017C118.118 41.7722 118.951 41.7722 119.406 42.3017C119.936 42.7555 119.936 43.5876 119.481 44.1171C117.967 45.6299 116.68 47.1427 115.468 48.7311C114.408 50.1683 113.348 51.6811 112.515 53.2695L112.591 54.4798C112.818 59.3964 113.121 64.3886 113.045 67.9437C112.97 69.6078 112.818 70.9693 112.515 72.0283C113.575 72.5578 114.711 72.8603 115.847 73.0116C117.361 73.1629 118.8 73.0116 119.936 72.4821C120.541 72.1796 121.298 72.4821 121.601 73.0873C121.904 73.768 121.677 74.5244 120.996 74.827C119.406 75.5834 117.513 75.8103 115.62 75.5834C113.954 75.4321 112.213 74.9026 110.85 74.0706C104.717 75.8103 98.8107 75.4321 93.5862 73.3898C88.5132 71.3475 84.1216 67.7168 80.9415 62.9515L80.6387 63.3297C80.2601 64.0104 79.5029 64.1617 78.8972 63.7835C78.2915 63.4053 78.0643 62.5733 78.4429 61.9681C79.1243 60.9848 79.8058 60.1528 80.6387 59.5477C81.4716 58.8669 82.3802 58.413 83.3645 58.1861C84.0459 58.0348 84.8031 58.4887 84.9545 59.1695C85.106 59.8502 84.6517 60.6066 83.9702 60.7579C83.5916 60.8335 83.213 60.9848 82.9102 61.1361C85.7874 65.6745 89.8761 69.0783 94.4948 70.8937C99.265 72.8603 104.641 73.1629 110.244 71.4988C110.395 71.4232 110.471 71.4232 110.622 71.3475C110.698 70.9693 110.395 69.6834 110.395 67.8681C110.471 64.4643 110.244 59.5477 109.941 54.631V53.5721C106.382 50.3952 102.445 48.5798 98.5835 46.7645C95.9334 45.5542 93.3591 44.344 90.7847 42.6799Z" fill="#B13D37"/>
</g>
<defs>
<clipPath id="clip0_313_16">
<rect width="140" height="161" fill="white"/>
</clipPath>
</defs>
</svg>
