<svg width="134" height="160" viewBox="0 0 134 160" fill="none" xmlns="http://www.w3.org/2000/svg">
<path d="M8.31268 39.5846C8.31268 42.1033 9.39684 44.1036 10.7701 44.1036C12.0711 44.1036 13.1553 42.1033 13.1553 39.5846C13.1553 37.1399 12.0711 35.1396 10.7701 35.1396C9.39684 35.1396 8.31268 37.1399 8.31268 39.5846Z" fill="#B13D37"/>
<path fill-rule="evenodd" clip-rule="evenodd" d="M11.4924 37.5098C5.71024 37.5098 1.08447 42.3251 1.08447 48.1776C1.08447 54.1041 5.71024 58.8453 11.4924 58.8453C17.2024 58.8453 21.8281 54.1041 21.8281 48.1776C21.8281 42.3251 17.2024 37.5098 11.4924 37.5098Z" fill="#ED3237" fill-opacity="0.85098"/>
<path d="M11.4934 37.2139C8.52998 37.2139 5.78343 38.3992 3.90422 40.3994C1.95272 42.3996 0.724005 45.1406 0.724005 48.178C0.724005 51.2153 1.95272 53.9564 3.90422 55.9566C5.78343 57.9568 8.52998 59.1421 11.4934 59.1421C14.3845 59.1421 17.131 57.9568 19.0102 55.9566C20.9617 53.9564 22.1904 51.2153 22.1904 48.178C22.1904 45.1406 20.9617 42.3996 19.0102 40.3994C17.131 38.3992 14.3845 37.2139 11.4934 37.2139ZM4.33788 40.918C6.14482 38.9918 8.67453 37.8806 11.4934 37.8806C14.2399 37.8806 16.7696 38.9918 18.5766 40.918C20.3835 42.77 21.5399 45.3629 21.5399 48.178C21.5399 51.0672 20.3835 53.586 18.5766 55.5121C16.7696 57.3641 14.2399 58.4754 11.4934 58.4754C8.67453 58.4754 6.14482 57.3641 4.33788 55.5121C2.53094 53.586 1.3745 51.0672 1.3745 48.178C1.3745 45.3629 2.53094 42.77 4.33788 40.918Z" fill="#373435"/>
<path d="M134 159.412C126.628 135.557 118.97 104.553 115.356 87.2182C112.754 74.4762 110.369 63.0676 106.971 54.1777L68.1584 104.85C68.6644 104.998 69.1703 105.22 69.6763 105.665C70.6159 106.331 78.4649 131.483 89.3788 159.412H134Z" fill="#F26B35"/>
<path fill-rule="evenodd" clip-rule="evenodd" d="M109.212 33.8789C107.694 35.2865 105.959 36.6199 103.936 37.9534C105.02 42.0279 105.598 46.1765 105.598 49.9547C105.598 50.251 105.598 50.5473 105.598 50.8437C106.971 53.4365 107.766 56.548 107.766 59.8076C107.766 61.9559 107.405 63.8821 106.899 65.7341C106.971 66.7713 107.044 67.8825 107.044 68.9196C107.044 78.5503 101.84 86.9215 94.1059 91.2183C91.3594 99.2191 82.397 105.146 71.8444 105.146C64.2553 105.146 57.5335 102.108 53.3414 97.5152C51.3176 97.2189 49.3661 96.6263 47.5592 95.8114C48.6433 61.6596 75.7474 34.2493 109.212 33.8789Z" fill="#F26B35"/>
<path d="M79.218 42.1752C79.5071 44.1013 80.4467 45.5089 81.6031 45.5089C82.9041 45.5089 83.9883 43.5086 83.9883 41.0639C83.9883 40.6195 83.9883 40.1009 83.916 39.7305C82.3259 40.4713 80.7358 41.2862 79.218 42.1752Z" fill="#B13D37"/>
<path d="M57.6782 62.9191C58.0396 63.2155 58.6179 63.2896 59.0517 62.9932C59.63 62.6227 59.8468 61.8077 59.4854 61.2149C59.3408 61.0668 59.2685 60.8445 59.124 60.6963C58.6179 61.4372 58.1119 62.1782 57.6782 62.9191Z" fill="#B13D37"/>
<path d="M87.8184 86.9951C86.5896 96.4035 78.6391 105.145 69.0262 105.071C77.9163 102.552 84.1322 95.5145 87.8184 86.9951Z" fill="#B13D37"/>
<path d="M121.932 113.889C119.186 103.814 116.945 94.5533 115.355 87.2192C112.753 74.4771 110.368 63.0685 106.971 54.1787L68.1579 104.851C68.6638 104.999 69.1698 105.221 69.6757 105.666C70.2539 106.11 73.7233 116.185 78.9995 130.779H120.487C121.282 127.964 122.511 115.963 121.932 113.889Z" fill="#F26B35"/>
<path fill-rule="evenodd" clip-rule="evenodd" d="M37.5841 83.5141C36.5723 83.6623 35.5604 83.7363 34.4762 83.7363C26.6702 83.7363 19.1534 77.6616 19.1534 73.2167C7.22758 68.4014 22.1167 45.7323 21.9722 48.9179H22.7672C21.0326 47.1399 19.2256 45.2878 18.7197 43.8803C18.1415 42.0282 19.1534 40.6948 20.9603 39.6576C21.394 36.6943 24.9356 32.3976 30.7178 28.4713C29.7782 25.2857 27.7544 18.7665 30.2841 11.2102C35.6326 13.8771 39.1742 18.1739 42.3545 20.1741C47.0525 14.692 53.3406 10.6916 60.5684 9.13589C64.5437 7.35792 68.8803 6.39486 73.5061 6.39486C81.4566 6.39486 88.6121 11.1361 94.1774 18.0998C97.7913 12.6918 101.983 7.0616 107.404 2.69076C110.729 0.54239 114.054 -0.0502649 117.379 1.20913C120.125 17.4331 117.668 28.9898 103.935 37.9537C105.019 42.0282 105.597 46.1768 105.597 49.955C105.597 50.2513 105.597 50.5477 105.597 50.844C106.971 53.4369 107.766 56.5483 107.766 59.8079C107.766 61.9563 107.404 63.8824 106.898 65.7344C106.971 66.7716 107.043 67.8828 107.043 68.92C107.043 78.5506 101.839 86.9219 94.1052 91.2186C91.3586 99.2195 82.3962 105.146 71.8437 105.146C64.2546 105.146 57.5327 102.109 53.3406 97.5156C45.5347 96.4043 39.3188 90.8482 37.5841 83.5141Z" fill="#F26B35"/>
<path d="M4.04797 20.1003C4.98757 22.3969 5.71035 19.4336 8.52917 19.4336C10.1916 19.4336 14.9619 23.0636 16.9856 23.3599C19.8045 23.7303 21.25 23.5081 20.7441 21.2856C19.6599 19.5077 6.86679 12.3958 4.04797 20.1003Z" fill="#B13D37"/>
<path d="M105.816 26.6197C105.599 26.1752 105.671 25.6566 106.105 25.2862C108.49 23.4341 110.008 21.2117 111.02 19.1374C110.369 17.5076 107.695 16.1741 106.683 15.8037L106.177 15.3592L106.105 14.4702C106.322 13.9517 106.827 13.7294 107.333 13.8776C107.767 14.0257 110.297 14.9888 111.887 16.8409C112.971 13.0627 112.537 10.0253 112.537 9.80308C112.393 9.28451 112.754 8.76593 113.332 8.69185C113.838 8.54369 114.344 8.9141 114.489 9.50675C114.489 9.95124 116.079 20.0264 107.261 26.916C106.827 27.2864 106.249 27.1382 105.888 26.6937L105.816 26.6197Z" fill="#B13D37"/>
<path d="M47.7042 42.3246C48.2824 41.9542 48.427 41.2134 48.0656 40.6207C47.7042 40.028 46.9091 39.8058 46.3309 40.1762C44.0903 41.7319 41.6329 42.8432 39.2477 44.0285C35.6338 45.7323 32.02 47.5103 28.5506 50.3995C27.8279 49.1401 27.0328 47.8807 26.0932 46.6954C24.9368 45.0656 23.5635 43.5099 22.1179 41.9542C21.612 41.4356 20.817 41.4356 20.3833 41.9542C19.8773 42.3987 19.8773 43.2136 20.311 43.7321C21.7566 45.2138 22.9853 46.6954 24.1417 48.2511C25.1536 49.6587 26.1655 51.1403 26.9605 52.696L26.8883 53.8814C26.6714 58.6967 26.3823 63.5861 26.4546 67.0679C26.5269 68.6977 26.6714 70.0312 26.9605 71.0684C25.9487 71.5869 24.8645 71.8833 23.7803 72.0314C22.3348 72.1796 20.9615 72.0314 19.8773 71.5128C19.2991 71.2165 18.5763 71.5128 18.2872 72.1055C17.9981 72.7722 18.215 73.5131 18.8655 73.8094C20.3833 74.5502 22.1902 74.7724 23.9972 74.5502C25.5873 74.402 27.2497 73.8835 28.5506 73.0686C34.4051 74.7724 40.0428 74.402 45.0299 72.4018C49.8725 70.4016 54.0646 66.8457 57.1003 62.1785L57.3894 62.5489C57.7508 63.2157 58.4735 63.3638 59.0518 62.9934C59.63 62.623 59.8468 61.8081 59.4854 61.2155C58.8349 60.2524 58.1844 59.4375 57.3894 58.8448C56.5943 58.1781 55.727 57.7336 54.7874 57.5114C54.1369 57.3632 53.4141 57.8077 53.2696 58.4744C53.125 59.1412 53.5587 59.882 54.2092 60.0302C54.5706 60.1042 54.9319 60.2524 55.2211 60.4006C52.4745 64.8455 48.5715 68.1792 44.1626 69.9571C39.6091 71.8833 34.4774 72.1796 29.1289 70.5498C28.9843 70.4757 28.912 70.4757 28.7675 70.4016C28.6952 70.0312 28.9843 68.7718 28.9843 66.9938C28.912 63.6602 29.1289 58.8448 29.418 54.0295V52.9924C32.815 49.8809 36.5735 48.103 40.2596 46.325C42.7893 45.1397 45.2468 43.9544 47.7042 42.3246Z" fill="#B13D37"/>
<path d="M87.8184 86.9971C86.5896 96.4055 78.6391 105.147 69.0262 105.073C77.9163 102.554 84.1322 95.5165 87.8184 86.9971Z" fill="#B13D37"/>
<path d="M20.9614 39.6581C22.4792 32.4721 31.5139 27.4345 38.308 24.1009C43.2951 21.6562 48.4991 18.1743 54.3536 18.767C56.2328 18.9892 58.0398 19.5078 59.7744 20.2486C52.1853 17.7298 45.3912 21.7302 38.8862 25.4343C32.2367 28.4717 23.7802 32.5462 20.9614 39.6581Z" fill="#B13D37"/>
<path d="M46.4033 77.5889C45.1023 82.1819 40.9102 85.1452 36.935 83.3673C41.4162 83.6636 44.5241 81.2189 46.4033 77.5889Z" fill="#B13D37"/>
<path d="M93.384 24.6202C91.3602 26.1019 92.2998 23.1386 89.9147 21.5829C88.5414 20.6939 82.6147 21.1384 80.7354 20.3235C78.1334 19.1382 77.0493 18.101 78.6394 16.4712C80.4463 15.5823 95.0464 16.5453 93.384 24.6202Z" fill="#B13D37"/>
<path fill-rule="evenodd" clip-rule="evenodd" d="M80.8789 9.72912L65.1224 12.0997C58.6174 8.91422 55.4372 4.9138 53.9194 0.542969C59.1234 2.83951 63.5323 6.5436 68.9531 6.69176C68.0135 3.72849 68.9531 2.24685 69.6759 0.542969C70.3987 3.58033 74.7353 5.65462 78.7106 7.06217L80.8789 9.72912Z" fill="#F26B35"/>
<path d="M69.3155 40.3257C69.3155 43.0667 70.5442 45.3632 72.062 45.3632C73.5799 45.3632 74.8086 43.0667 74.8086 40.3257C74.8086 37.5105 73.5799 35.2881 72.062 35.2881C70.5442 35.2881 69.3155 37.5105 69.3155 40.3257Z" fill="#B13D37"/>
<path fill-rule="evenodd" clip-rule="evenodd" d="M63.6781 37.7324C58.2573 37.7324 53.9206 42.2514 53.9206 47.7335C53.9206 53.2896 58.2573 57.7345 63.6781 57.7345C69.0989 57.7345 73.4355 53.2896 73.4355 47.7335C73.4355 42.2514 69.0989 37.7324 63.6781 37.7324Z" fill="#ED3237" fill-opacity="0.85098"/>
<path d="M63.678 37.4365C60.8592 37.4365 58.4018 38.6218 56.5226 40.4739C54.7156 42.3259 53.6315 44.9188 53.6315 47.7339C53.6315 50.6231 54.7156 53.216 56.5226 55.068C58.4018 56.9201 60.8592 58.1054 63.678 58.1054C66.4246 58.1054 68.9543 56.9201 70.7612 55.068C72.6404 53.216 73.7246 50.6231 73.7246 47.7339C73.7246 44.9188 72.6404 42.3259 70.7612 40.4739C68.9543 38.6218 66.4246 37.4365 63.678 37.4365ZM56.9562 40.9184C58.6909 39.1404 61.076 38.1033 63.678 38.1033C66.28 38.1033 68.6652 39.1404 70.3276 40.9184C72.0622 42.6963 73.1464 45.067 73.1464 47.7339C73.1464 50.4749 72.0622 52.8456 70.3276 54.6235C68.6652 56.4015 66.28 57.4386 63.678 57.4386C61.076 57.4386 58.6909 56.4015 56.9562 54.6235C55.2938 52.8456 54.2097 50.4749 54.2097 47.7339C54.2097 45.067 55.2938 42.6963 56.9562 40.9184Z" fill="#373435"/>
<path d="M54.6426 44.0278C48.9327 36.2492 42.0663 31.508 35.995 30.0263C33.1039 29.2855 30.3573 29.2855 27.9722 30.0263C25.587 30.7671 23.6355 32.3229 22.2622 34.6935C21.4672 36.101 20.889 37.8049 20.6721 39.8792L20.9613 39.657C21.1781 38.1012 22.3345 35.6565 24.0692 33.8045L26.5266 32.471V32.5451C27.1048 32.1747 27.7553 31.8043 28.4781 31.582C30.5742 30.9153 32.9593 30.9894 35.6336 31.6561C41.3435 33.0637 48.499 38.4717 53.9198 45.8798L54.6426 44.0278ZM20.6721 39.8792C20.5999 40.1015 20.5999 40.3237 20.5999 40.62L20.6721 39.8792Z" fill="#373435"/>
</svg>
