<svg width="143" height="160" viewBox="0 0 143 160" fill="none" xmlns="http://www.w3.org/2000/svg">
<g clip-path="url(#clip0_253_253)">
<path d="M133.658 161.133C126.266 137.059 118.258 107.917 114.563 90.178C111.483 76.874 109.019 64.8371 105.939 55.9678L65.8993 107.917C66.5153 107.917 67.1313 108.55 67.7473 108.55C68.3632 109.817 76.3711 133.891 87.4589 163.033C94.2348 164.934 101.627 166.201 109.019 166.201C117.642 166.201 126.266 164.934 133.658 161.133Z" fill="#F26B35"/>
<path fill-rule="evenodd" clip-rule="evenodd" d="M107.787 35.0615C106.555 36.3286 104.707 38.2291 102.859 39.4962C103.475 43.2973 104.091 47.732 104.091 51.5331C104.091 52.1666 104.091 52.1666 104.091 52.8002C105.939 55.3343 106.555 58.5019 106.555 61.6695C106.555 64.2036 105.939 66.1042 105.323 68.0047C105.939 68.6382 105.939 69.9053 105.939 71.1723C105.939 80.6752 100.395 89.5445 92.3874 93.9792C89.9234 102.215 80.6835 108.55 69.5957 108.55C62.2038 108.55 54.812 105.383 50.5 100.314C48.652 100.314 46.8041 99.6809 44.9561 98.4138C46.1881 63.5701 73.9076 35.695 107.787 35.0615Z" fill="#F26B35"/>
<path d="M76.9871 43.2968C77.6031 45.8309 78.2191 47.0979 79.4511 47.0979C81.299 47.0979 81.915 45.1974 81.915 42.6633C81.915 42.0297 81.915 41.3962 81.915 40.7627C80.6831 42.0297 78.8351 42.6633 76.9871 43.2968Z" fill="#B13D37"/>
<path d="M55.4274 64.8371C55.4274 65.4706 56.0434 65.4706 56.6594 64.8371C57.2754 64.8371 57.2754 63.57 57.2754 62.9365C56.6594 62.9365 56.6594 62.9365 56.6594 62.9365C56.0434 63.57 55.4274 64.2036 55.4274 64.8371Z" fill="#B13D37"/>
<path d="M86.2266 89.5449C84.9946 99.0478 76.3707 108.551 67.1309 108.551C75.7547 105.383 82.5306 98.4142 86.2266 89.5449Z" fill="#B13D37"/>
<path d="M125.65 134.526C120.722 118.054 116.411 101.582 114.563 90.179C111.483 76.875 109.019 64.8381 105.939 55.9688L65.8993 107.918C66.5153 107.918 67.1313 108.551 67.7473 108.551C68.3633 109.185 71.4433 119.321 76.9872 134.526H125.65Z" fill="#F26B35"/>
<path d="M5.53204 42.6639C5.53204 45.198 6.76402 47.0985 7.996 47.0985C9.22798 47.0985 10.46 45.198 10.46 42.6639C10.46 40.1298 9.22798 37.5957 7.996 37.5957C6.76402 37.5957 5.53204 40.1298 5.53204 42.6639Z" fill="#B13D37"/>
<path fill-rule="evenodd" clip-rule="evenodd" d="M34.484 86.3765C33.868 86.3765 32.636 86.3765 31.404 86.3765C23.3962 86.3765 16.0043 80.0412 16.0043 75.6066C3.68449 70.5384 19.0842 47.098 18.4682 50.2657H19.7002C17.8523 48.9986 16.0043 47.098 15.3883 45.1975C14.7723 43.2969 16.0043 42.0299 17.8523 40.7628C17.8523 38.2287 21.5482 33.7941 27.7081 29.3594C26.4761 26.1918 24.6282 19.8566 27.0921 11.6208C32.636 14.7884 36.332 19.223 39.4119 21.1236C44.3398 15.4219 50.4997 10.9872 57.8916 9.72019C62.2036 7.81962 66.5155 7.1861 71.4434 7.1861C79.4513 7.1861 86.8432 11.6208 92.3871 18.5895C96.083 13.5213 100.395 7.81962 105.939 2.75143C109.635 0.850865 112.715 0.217342 116.411 1.48439C119.491 17.956 116.411 29.9929 102.859 39.4958C103.475 43.2969 104.091 47.7316 104.091 51.5327C104.091 52.1662 104.091 52.1662 104.091 52.7998C105.939 55.3338 106.555 58.5015 106.555 61.6691C106.555 64.2032 105.939 66.1037 105.323 68.0043C105.939 68.6378 105.939 69.9049 105.939 71.1719C105.939 80.6748 100.395 89.5441 92.3871 93.9788C89.9231 102.215 80.6833 108.55 69.5954 108.55C62.2036 108.55 54.8117 105.382 50.4997 100.314C43.1079 99.0469 36.332 93.3452 34.484 86.3765Z" fill="#F26B35"/>
<path d="M0.603916 21.1248C1.21991 23.0253 1.8359 20.4912 4.91585 20.4912C6.76382 20.4912 11.6917 24.2924 13.5397 24.2924C16.6197 24.9259 17.8516 24.2924 17.2357 22.3918C16.6197 20.4912 3.06788 12.889 0.603916 21.1248Z" fill="#B13D37"/>
<path d="M104.707 27.4591C104.091 27.4591 104.091 26.8256 104.707 26.192C107.171 24.2915 109.019 22.3909 109.635 19.8568C109.019 17.9562 106.555 16.6892 105.323 16.6892L104.707 16.0557V15.4221C104.707 14.7886 105.323 14.1551 105.939 14.7886C106.555 14.7886 109.019 15.4221 110.867 17.3227C112.099 13.5216 111.483 10.354 111.483 10.354C111.483 9.72044 111.483 9.08691 112.099 9.08691C112.715 9.08691 113.331 9.72044 113.331 10.354C113.331 10.354 115.179 21.1239 105.939 28.0926C105.323 28.0926 104.707 28.0926 104.707 27.4591Z" fill="#B13D37"/>
<path d="M44.9556 43.9306C45.5716 43.2971 45.5716 42.6635 45.5716 42.03C44.9556 41.3965 44.3396 41.3965 43.7236 41.3965C41.2596 43.2971 38.7957 44.5641 36.3317 45.1976C32.6358 47.0982 28.9398 48.9988 25.2439 52.1664C24.6279 50.8993 24.0119 49.6323 22.7799 48.3652C21.548 46.4647 20.316 45.1976 19.084 43.2971C18.468 42.6635 17.236 42.6635 17.236 43.2971C16.62 43.9306 16.62 44.5641 17.236 45.1976C18.468 46.4647 19.7 48.3652 20.932 49.6323C22.164 51.5329 22.7799 52.7999 24.0119 54.7005V55.334C23.3959 60.4022 23.3959 65.4704 23.3959 69.2715C23.3959 70.5385 23.3959 72.4391 24.0119 73.0726C22.7799 73.7062 21.548 74.3397 20.316 74.3397C19.084 74.3397 17.852 74.3397 16.62 73.7062C16.0041 73.7062 15.3881 73.7062 14.7721 74.3397C14.7721 74.9732 14.7721 75.6067 15.3881 76.2403C17.236 76.8738 19.084 76.8738 20.932 76.8738C22.164 76.8738 24.0119 76.2403 25.2439 75.6067C31.4038 76.8738 36.9477 76.8738 42.4916 74.3397C47.4195 72.4391 51.7315 69.2715 54.8114 64.2033V64.8368C55.4274 65.4704 56.0434 65.4704 56.6594 64.8368C57.2754 64.8368 57.2754 63.5698 57.2754 62.9363C56.6594 62.3027 56.0434 61.6692 54.8114 61.0357C54.1954 59.7687 52.9635 59.7687 52.3475 59.1351C51.7315 59.1351 51.1155 59.7687 50.4995 60.4022C50.4995 61.0357 51.1155 61.6692 51.7315 61.6692C52.3475 62.3027 52.3475 62.3027 52.9635 62.3027C49.8835 66.7374 46.1876 70.5385 41.2596 72.4391C36.9477 74.3397 31.4038 74.3397 25.8599 73.0726C25.8599 72.4391 25.8599 72.4391 25.8599 72.4391C25.8599 72.4391 25.8599 71.1721 25.8599 69.2715C25.8599 65.4704 25.8599 61.0357 26.4759 55.9675V54.7005C29.5558 51.5329 33.8678 49.6323 37.5637 47.7317C40.0277 46.4647 42.4916 45.1976 44.9556 43.9306Z" fill="#B13D37"/>
<path d="M86.2266 89.5449C84.9946 99.0478 76.3707 108.551 67.1309 108.551C75.7547 105.383 82.5306 98.4142 86.2266 89.5449Z" fill="#B13D37"/>
<path d="M17.852 40.7636C19.084 33.7949 28.3239 28.7267 35.0997 24.9255C40.6437 22.3914 45.5716 19.2238 51.7315 19.8574C53.5794 19.8574 55.4274 20.4909 57.2754 21.1244C49.8835 18.5903 42.4916 22.3914 35.7157 26.1926C28.9398 29.3602 20.316 33.7949 17.852 40.7636Z" fill="#B13D37"/>
<path d="M43.7236 80.042C42.4917 84.4767 38.1797 87.6443 33.8678 85.7437C38.7957 86.3772 41.8757 83.8431 43.7236 80.042Z" fill="#B13D37"/>
<path d="M91.7713 25.5591C89.9233 26.8261 90.5393 24.292 88.0754 22.3915C86.8434 21.7579 80.6835 21.7579 78.8355 21.1244C76.3715 19.8574 75.1396 18.5903 76.3715 17.3233C78.8355 16.0562 93.6193 17.3233 91.7713 25.5591Z" fill="#B13D37"/>
<path fill-rule="evenodd" clip-rule="evenodd" d="M78.835 10.3544L62.8192 12.8885C56.0433 9.72088 52.9634 5.28622 51.1154 0.851562C56.6593 3.38565 60.9712 7.18679 66.5152 7.18679C65.8992 4.01918 66.5152 2.75213 67.7471 0.851562C68.3631 4.01918 72.6751 5.91975 76.987 7.82032L78.835 10.3544Z" fill="#F26B35"/>
<path d="M64.6668 41.3964C64.6668 47.0981 67.1308 51.5328 70.2108 51.5328C72.6747 51.5328 75.1387 47.0981 75.1387 41.3964C75.1387 36.3282 72.6747 31.8936 70.2108 31.8936C67.1308 31.8936 64.6668 36.3282 64.6668 41.3964Z" fill="#B13D37"/>
<path fill-rule="evenodd" clip-rule="evenodd" d="M73.2921 16.6885C57.2763 16.6885 43.7245 30.626 43.7245 47.0976C43.7245 64.2027 57.2763 78.1402 73.2921 78.1402C89.9238 78.1402 103.476 64.2027 103.476 47.0976C103.476 30.626 89.9238 16.6885 73.2921 16.6885Z" fill="#E9E6EB" fill-opacity="0.278431"/>
<path d="M73.2919 15.4219C64.6681 15.4219 57.2762 18.5895 51.7323 24.9247C45.5724 30.6264 42.4924 38.2287 42.4924 47.098C42.4924 55.9674 45.5724 64.2032 51.7323 69.9049C57.2762 75.6066 64.6681 79.4077 73.2919 79.4077C90.5396 79.4077 93.6196 68.0043 97.3155 71.1719L131.195 97.1464C133.043 98.4134 136.123 98.4134 137.355 95.8793C139.203 93.9787 138.587 90.8111 136.739 88.9106L102.859 63.5696C100.395 61.0355 104.707 55.3338 104.707 47.098C104.707 38.2287 101.011 30.6264 95.4676 24.9247C89.9237 18.5895 81.9158 15.4219 73.2919 15.4219ZM96.6996 64.2032C96.6996 64.2032 96.6996 64.2032 96.0836 64.2032V64.8367C95.4676 66.1037 94.2356 66.7372 93.6196 68.0043C88.0757 73.0725 81.2998 76.2401 73.2919 76.2401C65.9 76.2401 58.5082 73.0725 53.5802 68.0043C48.0363 62.3026 44.9564 55.3338 44.9564 47.098C44.9564 39.4958 48.0363 31.8935 53.5802 26.8253C58.5082 21.1236 65.9 17.956 73.2919 17.956C81.2998 17.956 88.0757 21.1236 93.6196 26.8253C98.5475 31.8935 101.627 39.4958 101.627 47.098C101.627 53.4333 99.7795 59.135 96.6996 64.2032Z" fill="#373435"/>
</g>
<defs>
<clipPath id="clip0_253_253">
<rect width="142.466" height="158.869" fill="white" transform="matrix(-1 0 0 1 143 0.851562)"/>
</clipPath>
</defs>
</svg>
